<mxfile host="65bd71144e">
    <diagram id="3WFA6LjzO5Pegp2F7YLk" name="Page-1">
        <mxGraphModel dx="416" dy="389" grid="1" gridSize="10" guides="1" tooltips="1" connect="1" arrows="1" fold="1" page="1" pageScale="1" pageWidth="1169" pageHeight="827" background="#ffffff" math="0" shadow="0">
            <root>
                <mxCell id="0"/>
                <mxCell id="1" parent="0"/>
                <mxCell id="37" style="edgeStyle=none;html=1;exitX=1;exitY=0.5;exitDx=0;exitDy=0;entryX=0;entryY=0.5;entryDx=0;entryDy=0;endArrow=none;endFill=0;labelBackgroundColor=none;fontColor=#000000;fillColor=#f5f5f5;strokeColor=#666666;" parent="1" source="3" target="29" edge="1">
                    <mxGeometry relative="1" as="geometry"/>
                </mxCell>
                <mxCell id="55" style="edgeStyle=elbowEdgeStyle;rounded=0;html=1;exitX=0.5;exitY=1;exitDx=0;exitDy=0;entryX=0.5;entryY=0;entryDx=0;entryDy=0;endArrow=none;endFill=0;labelBackgroundColor=none;fontColor=#000000;fillColor=#f5f5f5;strokeColor=#666666;" parent="1" source="3" target="54" edge="1">
                    <mxGeometry relative="1" as="geometry"/>
                </mxCell>
                <mxCell id="3" value="ログイン画面" style="rounded=1;whiteSpace=wrap;html=1;glass=0;labelBackgroundColor=none;fillColor=#99FFFF;fontColor=#333333;strokeColor=#3399FF;strokeWidth=2;" parent="1" vertex="1">
                    <mxGeometry x="40" y="200" width="120" height="40" as="geometry"/>
                </mxCell>
                <mxCell id="38" style="edgeStyle=none;html=1;exitX=1;exitY=0.5;exitDx=0;exitDy=0;entryX=0;entryY=0.5;entryDx=0;entryDy=0;endArrow=none;endFill=0;labelBackgroundColor=none;fontColor=#000000;fillColor=#f5f5f5;strokeColor=#666666;" parent="1" source="29" target="31" edge="1">
                    <mxGeometry relative="1" as="geometry"/>
                </mxCell>
                <mxCell id="59" style="edgeStyle=elbowEdgeStyle;rounded=0;html=1;exitX=1;exitY=0.5;exitDx=0;exitDy=0;entryX=0;entryY=0.5;entryDx=0;entryDy=0;endArrow=none;endFill=0;labelBackgroundColor=none;fontColor=#000000;fillColor=#f5f5f5;strokeColor=#666666;" parent="1" source="29" target="58" edge="1">
                    <mxGeometry relative="1" as="geometry"/>
                </mxCell>
                <mxCell id="64" style="edgeStyle=elbowEdgeStyle;rounded=0;html=1;exitX=1;exitY=0.5;exitDx=0;exitDy=0;entryX=0;entryY=0.5;entryDx=0;entryDy=0;fontSize=10;endArrow=none;endFill=0;labelBackgroundColor=none;fontColor=#000000;fillColor=#f5f5f5;strokeColor=#666666;" parent="1" source="29" target="47" edge="1">
                    <mxGeometry relative="1" as="geometry">
                        <Array as="points">
                            <mxPoint x="340" y="260"/>
                        </Array>
                    </mxGeometry>
                </mxCell>
                <mxCell id="65" style="edgeStyle=elbowEdgeStyle;rounded=0;html=1;exitX=1;exitY=0.5;exitDx=0;exitDy=0;entryX=0;entryY=0.5;entryDx=0;entryDy=0;fontSize=10;endArrow=none;endFill=0;labelBackgroundColor=none;fontColor=#000000;fillColor=#f5f5f5;strokeColor=#666666;" parent="1" source="29" target="48" edge="1">
                    <mxGeometry relative="1" as="geometry">
                        <Array as="points">
                            <mxPoint x="340" y="300"/>
                        </Array>
                    </mxGeometry>
                </mxCell>
                <mxCell id="29" value="トップページ&lt;br&gt;予約・キャンセル&lt;br&gt;待ち詳細一覧" style="rounded=1;whiteSpace=wrap;html=1;glass=0;labelBackgroundColor=none;fillColor=#99FFFF;fontColor=#333333;strokeColor=#3399FF;strokeWidth=2;" parent="1" vertex="1">
                    <mxGeometry x="200" y="190" width="120" height="60" as="geometry"/>
                </mxCell>
                <mxCell id="39" style="edgeStyle=none;html=1;exitX=1;exitY=0.5;exitDx=0;exitDy=0;entryX=0;entryY=0.5;entryDx=0;entryDy=0;endArrow=none;endFill=0;labelBackgroundColor=none;fontColor=#000000;fillColor=#f5f5f5;strokeColor=#666666;" parent="1" source="31" target="32" edge="1">
                    <mxGeometry relative="1" as="geometry"/>
                </mxCell>
                <mxCell id="31" value="カレンダー表示" style="rounded=1;whiteSpace=wrap;html=1;glass=0;labelBackgroundColor=none;fillColor=#99FFFF;fontColor=#333333;strokeColor=#3399FF;strokeWidth=2;" parent="1" vertex="1">
                    <mxGeometry x="440" y="200" width="120" height="40" as="geometry"/>
                </mxCell>
                <mxCell id="40" style="edgeStyle=none;html=1;exitX=1;exitY=0.5;exitDx=0;exitDy=0;entryX=0;entryY=0.5;entryDx=0;entryDy=0;endArrow=none;endFill=0;labelBackgroundColor=none;fontColor=#000000;fillColor=#f5f5f5;strokeColor=#666666;" parent="1" source="32" target="34" edge="1">
                    <mxGeometry relative="1" as="geometry"/>
                </mxCell>
                <mxCell id="51" style="edgeStyle=elbowEdgeStyle;html=1;exitX=1;exitY=0.5;exitDx=0;exitDy=0;entryX=0;entryY=0.5;entryDx=0;entryDy=0;endArrow=none;endFill=0;rounded=0;labelBackgroundColor=none;fontColor=#000000;fillColor=#f5f5f5;strokeColor=#666666;" parent="1" source="32" target="35" edge="1">
                    <mxGeometry relative="1" as="geometry"/>
                </mxCell>
                <mxCell id="32" value="空き時間表示" style="rounded=1;whiteSpace=wrap;html=1;glass=0;labelBackgroundColor=none;fillColor=#99FFFF;fontColor=#333333;strokeColor=#3399FF;strokeWidth=2;" parent="1" vertex="1">
                    <mxGeometry x="640" y="200" width="120" height="40" as="geometry"/>
                </mxCell>
                <mxCell id="41" style="edgeStyle=none;html=1;exitX=1;exitY=0.5;exitDx=0;exitDy=0;entryX=0;entryY=0.5;entryDx=0;entryDy=0;endArrow=none;endFill=0;labelBackgroundColor=none;fontColor=#000000;fillColor=#f5f5f5;strokeColor=#666666;" parent="1" source="34" target="36" edge="1">
                    <mxGeometry relative="1" as="geometry"/>
                </mxCell>
                <mxCell id="34" value="新規予約作成" style="rounded=1;whiteSpace=wrap;html=1;glass=0;labelBackgroundColor=none;fillColor=#99FFFF;fontColor=#333333;strokeColor=#3399FF;strokeWidth=2;" parent="1" vertex="1">
                    <mxGeometry x="840" y="200" width="120" height="40" as="geometry"/>
                </mxCell>
                <mxCell id="50" style="edgeStyle=none;html=1;exitX=1;exitY=0.5;exitDx=0;exitDy=0;entryX=0;entryY=0.5;entryDx=0;entryDy=0;endArrow=none;endFill=0;labelBackgroundColor=none;fontColor=#000000;fillColor=#f5f5f5;strokeColor=#666666;" parent="1" source="35" target="49" edge="1">
                    <mxGeometry relative="1" as="geometry"/>
                </mxCell>
                <mxCell id="35" value="キャンセル待ち作成" style="rounded=1;whiteSpace=wrap;html=1;glass=0;labelBackgroundColor=none;fillColor=#99FFFF;fontColor=#333333;strokeColor=#3399FF;strokeWidth=2;" parent="1" vertex="1">
                    <mxGeometry x="840" y="280" width="120" height="40" as="geometry"/>
                </mxCell>
                <mxCell id="36" value="予約確認" style="rounded=1;whiteSpace=wrap;html=1;glass=0;labelBackgroundColor=none;fillColor=#99FFFF;fontColor=#333333;strokeColor=#3399FF;strokeWidth=2;" parent="1" vertex="1">
                    <mxGeometry x="1040" y="200" width="120" height="40" as="geometry"/>
                </mxCell>
                <mxCell id="42" value="駐車券作成" style="rounded=1;whiteSpace=wrap;html=1;glass=0;labelBackgroundColor=none;fillColor=#99FFFF;fontColor=#333333;strokeColor=#3399FF;strokeWidth=2;" parent="1" vertex="1">
                    <mxGeometry x="440" y="440" width="120" height="40" as="geometry"/>
                </mxCell>
                <mxCell id="72" style="edgeStyle=elbowEdgeStyle;rounded=0;html=1;exitX=0;exitY=0.5;exitDx=0;exitDy=0;fontSize=10;endArrow=none;endFill=0;labelBackgroundColor=none;fontColor=#000000;fillColor=#f5f5f5;strokeColor=#666666;" parent="1" source="43" edge="1">
                    <mxGeometry relative="1" as="geometry">
                        <mxPoint x="560" y="620" as="targetPoint"/>
                    </mxGeometry>
                </mxCell>
                <mxCell id="43" value="車両情報編集" style="rounded=1;whiteSpace=wrap;html=1;glass=0;labelBackgroundColor=none;fillColor=#99FFFF;fontColor=#333333;strokeColor=#3399FF;strokeWidth=2;" parent="1" vertex="1">
                    <mxGeometry x="640" y="680" width="120" height="40" as="geometry"/>
                </mxCell>
                <mxCell id="71" style="edgeStyle=elbowEdgeStyle;rounded=0;html=1;exitX=0;exitY=0.5;exitDx=0;exitDy=0;fontSize=10;endArrow=none;endFill=0;labelBackgroundColor=none;fontColor=#000000;fillColor=#f5f5f5;strokeColor=#666666;" parent="1" source="44" edge="1">
                    <mxGeometry relative="1" as="geometry">
                        <mxPoint x="560" y="619.6190476190475" as="targetPoint"/>
                    </mxGeometry>
                </mxCell>
                <mxCell id="44" value="車両情報登録" style="rounded=1;whiteSpace=wrap;html=1;glass=0;labelBackgroundColor=none;fillColor=#99FFFF;fontColor=#333333;strokeColor=#3399FF;strokeWidth=2;" parent="1" vertex="1">
                    <mxGeometry x="640" y="600" width="120" height="40" as="geometry"/>
                </mxCell>
                <mxCell id="69" style="edgeStyle=elbowEdgeStyle;rounded=0;html=1;exitX=0;exitY=0.5;exitDx=0;exitDy=0;entryX=1;entryY=0.5;entryDx=0;entryDy=0;fontSize=10;endArrow=none;endFill=0;labelBackgroundColor=none;fontColor=#000000;fillColor=#f5f5f5;strokeColor=#666666;" parent="1" source="45" target="56" edge="1">
                    <mxGeometry relative="1" as="geometry"/>
                </mxCell>
                <mxCell id="45" value="利用者情報編集" style="rounded=1;whiteSpace=wrap;html=1;glass=0;labelBackgroundColor=none;fillColor=#99FFFF;fontColor=#333333;strokeColor=#3399FF;strokeWidth=2;" parent="1" vertex="1">
                    <mxGeometry x="640" y="440" width="120" height="40" as="geometry"/>
                </mxCell>
                <mxCell id="47" value="予約削除完了" style="rounded=1;whiteSpace=wrap;html=1;glass=0;labelBackgroundColor=none;fillColor=#99FFFF;fontColor=#333333;strokeColor=#3399FF;strokeWidth=2;" parent="1" vertex="1">
                    <mxGeometry x="440" y="280" width="120" height="40" as="geometry"/>
                </mxCell>
                <mxCell id="48" value="キャンセル待ち&lt;br&gt;削除完了" style="rounded=1;whiteSpace=wrap;html=1;glass=0;labelBackgroundColor=none;fillColor=#99FFFF;fontColor=#333333;strokeColor=#3399FF;strokeWidth=2;" parent="1" vertex="1">
                    <mxGeometry x="440" y="360" width="120" height="40" as="geometry"/>
                </mxCell>
                <mxCell id="49" value="キャンセル待ち&lt;br&gt;確認" style="rounded=1;whiteSpace=wrap;html=1;glass=0;labelBackgroundColor=none;fillColor=#99FFFF;fontColor=#333333;strokeColor=#3399FF;strokeWidth=2;" parent="1" vertex="1">
                    <mxGeometry x="1040" y="280" width="120" height="40" as="geometry"/>
                </mxCell>
                <mxCell id="52" value="日付選択" style="text;html=1;align=center;verticalAlign=middle;resizable=0;points=[];autosize=1;labelBackgroundColor=none;fillColor=none;fontColor=#333333;strokeColor=none;" parent="1" vertex="1">
                    <mxGeometry x="570" y="200" width="60" height="20" as="geometry"/>
                </mxCell>
                <mxCell id="53" value="時間選択" style="text;html=1;align=center;verticalAlign=middle;resizable=0;points=[];autosize=1;labelBackgroundColor=none;fillColor=none;fontColor=#333333;strokeColor=none;" parent="1" vertex="1">
                    <mxGeometry x="770" y="200" width="60" height="20" as="geometry"/>
                </mxCell>
                <mxCell id="54" value="新規登録" style="rounded=1;whiteSpace=wrap;html=1;glass=0;labelBackgroundColor=none;fillColor=#99FFFF;fontColor=#333333;strokeColor=#3399FF;strokeWidth=2;" parent="1" vertex="1">
                    <mxGeometry x="40" y="280" width="120" height="40" as="geometry"/>
                </mxCell>
                <mxCell id="66" style="edgeStyle=elbowEdgeStyle;rounded=0;html=1;exitX=0;exitY=0.5;exitDx=0;exitDy=0;entryX=1;entryY=0.5;entryDx=0;entryDy=0;fontSize=10;endArrow=none;endFill=0;labelBackgroundColor=none;fontColor=#000000;fillColor=#f5f5f5;strokeColor=#666666;" parent="1" source="56" target="29" edge="1">
                    <mxGeometry relative="1" as="geometry">
                        <Array as="points">
                            <mxPoint x="340" y="420"/>
                        </Array>
                    </mxGeometry>
                </mxCell>
                <mxCell id="56" value="利用者情報一覧" style="rounded=1;whiteSpace=wrap;html=1;glass=0;labelBackgroundColor=none;fillColor=#99FFFF;fontColor=#333333;strokeColor=#3399FF;strokeWidth=2;" parent="1" vertex="1">
                    <mxGeometry x="440" y="600" width="120" height="40" as="geometry"/>
                </mxCell>
                <mxCell id="57" value="駐車券表示／印刷" style="rounded=1;whiteSpace=wrap;html=1;glass=0;labelBackgroundColor=none;fillColor=#99FFFF;fontColor=#333333;strokeColor=#3399FF;strokeWidth=2;" parent="1" vertex="1">
                    <mxGeometry x="440" y="520" width="120" height="40" as="geometry"/>
                </mxCell>
                <mxCell id="60" style="edgeStyle=elbowEdgeStyle;rounded=0;html=1;exitX=0.5;exitY=0;exitDx=0;exitDy=0;entryX=0;entryY=0.5;entryDx=0;entryDy=0;endArrow=none;endFill=0;labelBackgroundColor=none;fontColor=#000000;fillColor=#f5f5f5;strokeColor=#666666;" parent="1" source="58" target="42" edge="1">
                    <mxGeometry relative="1" as="geometry">
                        <Array as="points">
                            <mxPoint x="390" y="460"/>
                        </Array>
                    </mxGeometry>
                </mxCell>
                <mxCell id="61" style="edgeStyle=elbowEdgeStyle;rounded=0;html=1;exitX=0.5;exitY=1;exitDx=0;exitDy=0;entryX=0;entryY=0.5;entryDx=0;entryDy=0;endArrow=none;endFill=0;labelBackgroundColor=none;fontColor=#000000;fillColor=#f5f5f5;strokeColor=#666666;" parent="1" source="58" target="57" edge="1">
                    <mxGeometry relative="1" as="geometry">
                        <Array as="points">
                            <mxPoint x="390" y="540"/>
                        </Array>
                    </mxGeometry>
                </mxCell>
                <mxCell id="58" value="駐車券を&lt;br style=&quot;font-size: 10px;&quot;&gt;作成済みか" style="shape=rhombus;html=1;dashed=0;whitespace=wrap;perimeter=rhombusPerimeter;rounded=0;glass=0;labelBackgroundColor=none;fontSize=10;fillColor=#CC99FF;fontColor=#333333;strokeColor=#666666;" parent="1" vertex="1">
                    <mxGeometry x="360" y="470" width="60" height="60" as="geometry"/>
                </mxCell>
                <mxCell id="62" value="No" style="text;html=1;align=center;verticalAlign=middle;resizable=0;points=[];autosize=1;labelBackgroundColor=none;fillColor=none;fontColor=#333333;strokeColor=none;" parent="1" vertex="1">
                    <mxGeometry x="395" y="440" width="30" height="20" as="geometry"/>
                </mxCell>
                <mxCell id="63" value="Yes" style="text;html=1;align=center;verticalAlign=middle;resizable=0;points=[];autosize=1;labelBackgroundColor=none;fillColor=none;fontColor=#333333;strokeColor=none;" parent="1" vertex="1">
                    <mxGeometry x="390" y="540" width="40" height="20" as="geometry"/>
                </mxCell>
                <mxCell id="70" style="edgeStyle=elbowEdgeStyle;rounded=0;html=1;exitX=0;exitY=0.5;exitDx=0;exitDy=0;fontSize=10;endArrow=none;endFill=0;labelBackgroundColor=none;fontColor=#000000;fillColor=#f5f5f5;strokeColor=#666666;" parent="1" source="67" edge="1">
                    <mxGeometry relative="1" as="geometry">
                        <mxPoint x="560" y="620" as="targetPoint"/>
                    </mxGeometry>
                </mxCell>
                <mxCell id="67" value="利用者削除完了" style="rounded=1;whiteSpace=wrap;html=1;glass=0;labelBackgroundColor=none;fillColor=#99FFFF;fontColor=#333333;strokeColor=#3399FF;strokeWidth=2;" parent="1" vertex="1">
                    <mxGeometry x="640" y="520" width="120" height="40" as="geometry"/>
                </mxCell>
                <mxCell id="73" style="edgeStyle=elbowEdgeStyle;rounded=0;html=1;exitX=0;exitY=0.5;exitDx=0;exitDy=0;fontSize=10;endArrow=none;endFill=0;labelBackgroundColor=none;fontColor=#000000;fillColor=#f5f5f5;strokeColor=#666666;" parent="1" source="68" edge="1">
                    <mxGeometry relative="1" as="geometry">
                        <mxPoint x="560" y="620" as="targetPoint"/>
                    </mxGeometry>
                </mxCell>
                <mxCell id="68" value="車両情報削除完了" style="rounded=1;whiteSpace=wrap;html=1;glass=0;labelBackgroundColor=none;fillColor=#99FFFF;fontColor=#333333;strokeColor=#3399FF;strokeWidth=2;" parent="1" vertex="1">
                    <mxGeometry x="640" y="760" width="120" height="40" as="geometry"/>
                </mxCell>
                <mxCell id="76" value="予約完了" style="rounded=1;whiteSpace=wrap;html=1;glass=0;labelBackgroundColor=none;fillColor=#99FFFF;fontColor=#333333;strokeColor=#3399FF;strokeWidth=2;" vertex="1" parent="1">
                    <mxGeometry x="1240" y="200" width="120" height="40" as="geometry"/>
                </mxCell>
                <mxCell id="77" value="キャンセル待ち&lt;br&gt;予約完了" style="rounded=1;whiteSpace=wrap;html=1;glass=0;labelBackgroundColor=none;fillColor=#99FFFF;fontColor=#333333;strokeColor=#3399FF;strokeWidth=2;" vertex="1" parent="1">
                    <mxGeometry x="1240" y="280" width="120" height="40" as="geometry"/>
                </mxCell>
                <mxCell id="80" style="edgeStyle=none;html=1;exitX=1;exitY=0.5;exitDx=0;exitDy=0;entryX=0;entryY=0.5;entryDx=0;entryDy=0;endArrow=none;endFill=0;labelBackgroundColor=none;fontColor=#000000;fillColor=#f5f5f5;strokeColor=#666666;" edge="1" parent="1">
                    <mxGeometry relative="1" as="geometry">
                        <mxPoint x="1160" y="220" as="sourcePoint"/>
                        <mxPoint x="1240" y="220" as="targetPoint"/>
                    </mxGeometry>
                </mxCell>
                <mxCell id="81" style="edgeStyle=none;html=1;exitX=1;exitY=0.5;exitDx=0;exitDy=0;entryX=0;entryY=0.5;entryDx=0;entryDy=0;endArrow=none;endFill=0;labelBackgroundColor=none;fontColor=#000000;fillColor=#f5f5f5;strokeColor=#666666;" edge="1" parent="1">
                    <mxGeometry relative="1" as="geometry">
                        <mxPoint x="1160" y="299.71" as="sourcePoint"/>
                        <mxPoint x="1240" y="299.71" as="targetPoint"/>
                    </mxGeometry>
                </mxCell>
            </root>
        </mxGraphModel>
    </diagram>
</mxfile>